<mxfile host="app.diagrams.net" agent="Mozilla/5.0 (Windows NT 10.0; Win64; x64) AppleWebKit/537.36 (KHTML, like Gecko) Chrome/129.0.0.0 Safari/537.36" version="24.8.0">
  <diagram name="Страница — 1" id="HKAQ7Aep-AlhHljngLrQ">
    <mxGraphModel dx="2074" dy="1106" grid="1" gridSize="10" guides="1" tooltips="1" connect="1" arrows="1" fold="1" page="1" pageScale="1" pageWidth="827" pageHeight="1169" math="0" shadow="0">
      <root>
        <mxCell id="0" />
        <mxCell id="1" parent="0" />
        <mxCell id="E8b6MVnxVse1NWtljT1R-23" value="Компания" style="swimlane;fontStyle=0;childLayout=stackLayout;horizontal=1;startSize=30;horizontalStack=0;resizeParent=1;resizeParentMax=0;resizeLast=0;collapsible=1;marginBottom=0;whiteSpace=wrap;html=1;" vertex="1" parent="1">
          <mxGeometry x="260" y="60" width="220" height="150" as="geometry" />
        </mxCell>
        <mxCell id="E8b6MVnxVse1NWtljT1R-24" value="- Департамент ИТ" style="text;strokeColor=none;fillColor=none;align=left;verticalAlign=middle;spacingLeft=4;spacingRight=4;overflow=hidden;points=[[0,0.5],[1,0.5]];portConstraint=eastwest;rotatable=0;whiteSpace=wrap;html=1;" vertex="1" parent="E8b6MVnxVse1NWtljT1R-23">
          <mxGeometry y="30" width="220" height="30" as="geometry" />
        </mxCell>
        <mxCell id="E8b6MVnxVse1NWtljT1R-25" value="- Департамент Финансов" style="text;strokeColor=none;fillColor=none;align=left;verticalAlign=middle;spacingLeft=4;spacingRight=4;overflow=hidden;points=[[0,0.5],[1,0.5]];portConstraint=eastwest;rotatable=0;whiteSpace=wrap;html=1;" vertex="1" parent="E8b6MVnxVse1NWtljT1R-23">
          <mxGeometry y="60" width="220" height="30" as="geometry" />
        </mxCell>
        <mxCell id="E8b6MVnxVse1NWtljT1R-28" value="- Департамент&amp;nbsp;Кадров" style="text;strokeColor=none;fillColor=none;align=left;verticalAlign=middle;spacingLeft=4;spacingRight=4;overflow=hidden;points=[[0,0.5],[1,0.5]];portConstraint=eastwest;rotatable=0;whiteSpace=wrap;html=1;" vertex="1" parent="E8b6MVnxVse1NWtljT1R-23">
          <mxGeometry y="90" width="220" height="30" as="geometry" />
        </mxCell>
        <mxCell id="E8b6MVnxVse1NWtljT1R-29" value="- Департамент&amp;nbsp;Маркетинга" style="text;strokeColor=none;fillColor=none;align=left;verticalAlign=middle;spacingLeft=4;spacingRight=4;overflow=hidden;points=[[0,0.5],[1,0.5]];portConstraint=eastwest;rotatable=0;whiteSpace=wrap;html=1;" vertex="1" parent="E8b6MVnxVse1NWtljT1R-23">
          <mxGeometry y="120" width="220" height="30" as="geometry" />
        </mxCell>
        <mxCell id="E8b6MVnxVse1NWtljT1R-30" value="Департамент ИТ" style="swimlane;fontStyle=0;childLayout=stackLayout;horizontal=1;startSize=30;horizontalStack=0;resizeParent=1;resizeParentMax=0;resizeLast=0;collapsible=1;marginBottom=0;whiteSpace=wrap;html=1;" vertex="1" parent="1">
          <mxGeometry x="120" y="310" width="140" height="120" as="geometry" />
        </mxCell>
        <mxCell id="E8b6MVnxVse1NWtljT1R-31" value="- Отдел Разработки" style="text;strokeColor=none;fillColor=none;align=left;verticalAlign=middle;spacingLeft=4;spacingRight=4;overflow=hidden;points=[[0,0.5],[1,0.5]];portConstraint=eastwest;rotatable=0;whiteSpace=wrap;html=1;" vertex="1" parent="E8b6MVnxVse1NWtljT1R-30">
          <mxGeometry y="30" width="140" height="30" as="geometry" />
        </mxCell>
        <mxCell id="E8b6MVnxVse1NWtljT1R-32" value="- Отдел Тестирования" style="text;strokeColor=none;fillColor=none;align=left;verticalAlign=middle;spacingLeft=4;spacingRight=4;overflow=hidden;points=[[0,0.5],[1,0.5]];portConstraint=eastwest;rotatable=0;whiteSpace=wrap;html=1;" vertex="1" parent="E8b6MVnxVse1NWtljT1R-30">
          <mxGeometry y="60" width="140" height="30" as="geometry" />
        </mxCell>
        <mxCell id="E8b6MVnxVse1NWtljT1R-33" value="- Отдел Поддержки" style="text;strokeColor=none;fillColor=none;align=left;verticalAlign=middle;spacingLeft=4;spacingRight=4;overflow=hidden;points=[[0,0.5],[1,0.5]];portConstraint=eastwest;rotatable=0;whiteSpace=wrap;html=1;" vertex="1" parent="E8b6MVnxVse1NWtljT1R-30">
          <mxGeometry y="90" width="140" height="30" as="geometry" />
        </mxCell>
        <mxCell id="E8b6MVnxVse1NWtljT1R-44" value="" style="endArrow=classic;html=1;rounded=0;" edge="1" parent="1" source="E8b6MVnxVse1NWtljT1R-23" target="E8b6MVnxVse1NWtljT1R-30">
          <mxGeometry width="50" height="50" relative="1" as="geometry">
            <mxPoint x="389" y="390" as="sourcePoint" />
            <mxPoint x="439" y="340" as="targetPoint" />
          </mxGeometry>
        </mxCell>
        <mxCell id="E8b6MVnxVse1NWtljT1R-46" value="" style="endArrow=classic;html=1;rounded=0;" edge="1" parent="1" source="E8b6MVnxVse1NWtljT1R-30" target="E8b6MVnxVse1NWtljT1R-56">
          <mxGeometry width="50" height="50" relative="1" as="geometry">
            <mxPoint x="364" y="380" as="sourcePoint" />
            <mxPoint x="360" y="550" as="targetPoint" />
          </mxGeometry>
        </mxCell>
        <mxCell id="E8b6MVnxVse1NWtljT1R-47" value="Маша" style="swimlane;fontStyle=0;childLayout=stackLayout;horizontal=1;startSize=30;horizontalStack=0;resizeParent=1;resizeParentMax=0;resizeLast=0;collapsible=1;marginBottom=0;whiteSpace=wrap;html=1;" vertex="1" parent="1">
          <mxGeometry x="490" y="410" width="140" height="60" as="geometry" />
        </mxCell>
        <mxCell id="E8b6MVnxVse1NWtljT1R-51" value="" style="endArrow=classic;html=1;rounded=0;" edge="1" parent="1" source="E8b6MVnxVse1NWtljT1R-56" target="E8b6MVnxVse1NWtljT1R-47">
          <mxGeometry width="50" height="50" relative="1" as="geometry">
            <mxPoint x="388.57142857142844" y="580" as="sourcePoint" />
            <mxPoint x="620" y="560" as="targetPoint" />
          </mxGeometry>
        </mxCell>
        <mxCell id="E8b6MVnxVse1NWtljT1R-56" value="Отдел Разработки" style="swimlane;fontStyle=0;childLayout=stackLayout;horizontal=1;startSize=30;horizontalStack=0;resizeParent=1;resizeParentMax=0;resizeLast=0;collapsible=1;marginBottom=0;whiteSpace=wrap;html=1;" vertex="1" parent="1">
          <mxGeometry x="300" y="600" width="140" height="60" as="geometry" />
        </mxCell>
        <mxCell id="E8b6MVnxVse1NWtljT1R-57" value="- Сотрудники" style="text;strokeColor=none;fillColor=none;align=left;verticalAlign=middle;spacingLeft=4;spacingRight=4;overflow=hidden;points=[[0,0.5],[1,0.5]];portConstraint=eastwest;rotatable=0;whiteSpace=wrap;html=1;" vertex="1" parent="E8b6MVnxVse1NWtljT1R-56">
          <mxGeometry y="30" width="140" height="30" as="geometry" />
        </mxCell>
      </root>
    </mxGraphModel>
  </diagram>
</mxfile>
